<svg xmlns="http://www.w3.org/2000/svg" width="900" height="366" viewBox="0 0 900 366" role="img" aria-label="수집 현황: 기간 0개, 일별 행 0, 기초지자체 0, 대기측정소 673"><rect x="0" y="0" width="900" height="366" fill="#fdfdf7"/><text x="44" y="58" font-family="Comic Sans MS, Chalkboard SE, Segoe Print, Bradley Hand, cursive" font-size="30" fill="#1e1e1e" text-anchor="start">수집 현황</text><text x="856" y="58" font-family="Comic Sans MS, Chalkboard SE, Segoe Print, Bradley Hand, cursive" font-size="16" fill="#5c5c5c" text-anchor="end"></text><path d="M38 87.7 C102.8 92.6 170 85.8 238 87.6" fill="none" stroke="#1e1e1e" stroke-width="1.6" stroke-opacity="1" stroke-linecap="round"/><path d="M39.1 88.7 C108.1 83.7 176.1 91.7 238 87.2" fill="none" stroke="#1e1e1e" stroke-width="1.6" stroke-opacity="0.75" stroke-linecap="round"/><path d="M232 82.3 C227.1 117.7 231.6 150.9 232.8 175.3" fill="none" stroke="#1e1e1e" stroke-width="1.6" stroke-opacity="1" stroke-linecap="round"/><path d="M231.1 83.2 C230.1 110.4 227.8 150.4 233.7 178.4" fill="none" stroke="#1e1e1e" stroke-width="1.6" stroke-opacity="0.75" stroke-linecap="round"/><path d="M235.5 173 C167 175.3 109.7 171 39.7 171.3" fill="none" stroke="#1e1e1e" stroke-width="1.6" stroke-opacity="1" stroke-linecap="round"/><path d="M235.6 170.2 C173.3 169.3 104 171.7 37.4 170.2" fill="none" stroke="#1e1e1e" stroke-width="1.6" stroke-opacity="0.75" stroke-linecap="round"/><path d="M42.6 175.3 C46.7 144 40.5 116.5 44.3 82" fill="none" stroke="#1e1e1e" stroke-width="1.6" stroke-opacity="1" stroke-linecap="round"/><path d="M42.2 175.9 C38.8 142.1 38.7 114 43.7 81.9" fill="none" stroke="#1e1e1e" stroke-width="1.6" stroke-opacity="0.75" stroke-linecap="round"/><text x="138" y="130" font-family="Comic Sans MS, Chalkboard SE, Segoe Print, Bradley Hand, cursive" font-size="32" fill="#1e1e1e" text-anchor="middle">0</text><text x="138" y="156" font-family="Comic Sans MS, Chalkboard SE, Segoe Print, Bradley Hand, cursive" font-size="15" fill="#5c5c5c" text-anchor="middle">수집 개월</text><path d="M247.8 86.6 C315.7 83.8 383.9 82.9 443.6 88.9" fill="none" stroke="#1e1e1e" stroke-width="1.6" stroke-opacity="1" stroke-linecap="round"/><path d="M245.9 87.7 C309.8 82.8 377.4 82.7 444.8 86.3" fill="none" stroke="#1e1e1e" stroke-width="1.6" stroke-opacity="0.75" stroke-linecap="round"/><path d="M440.8 81.5 C445.2 111.7 437.5 147.8 441 175.3" fill="none" stroke="#1e1e1e" stroke-width="1.6" stroke-opacity="1" stroke-linecap="round"/><path d="M440.9 82 C444.7 111.1 435.2 148.2 441.5 176.5" fill="none" stroke="#1e1e1e" stroke-width="1.6" stroke-opacity="0.75" stroke-linecap="round"/><path d="M446.1 170.8 C383.2 173.6 315.5 167.1 245.5 172.5" fill="none" stroke="#1e1e1e" stroke-width="1.6" stroke-opacity="1" stroke-linecap="round"/><path d="M446.1 171.8 C383.5 177.2 317.1 175.4 248 170.1" fill="none" stroke="#1e1e1e" stroke-width="1.6" stroke-opacity="0.75" stroke-linecap="round"/><path d="M253.6 177.4 C247.4 141.6 253.1 119.1 252.9 83.4" fill="none" stroke="#1e1e1e" stroke-width="1.6" stroke-opacity="1" stroke-linecap="round"/><path d="M252.4 174.9 C255.8 147.2 253.2 110 250.2 81.9" fill="none" stroke="#1e1e1e" stroke-width="1.6" stroke-opacity="0.75" stroke-linecap="round"/><text x="346" y="130" font-family="Comic Sans MS, Chalkboard SE, Segoe Print, Bradley Hand, cursive" font-size="32" fill="#1e1e1e" text-anchor="middle">0</text><text x="346" y="156" font-family="Comic Sans MS, Chalkboard SE, Segoe Print, Bradley Hand, cursive" font-size="15" fill="#5c5c5c" text-anchor="middle">일별 행</text><path d="M454.5 89.5 C525.8 92.6 584.4 90.8 653 89.6" fill="none" stroke="#1e1e1e" stroke-width="1.6" stroke-opacity="1" stroke-linecap="round"/><path d="M456.9 88.7 C521 87.5 582.4 84 652.9 87.8" fill="none" stroke="#1e1e1e" stroke-width="1.6" stroke-opacity="0.75" stroke-linecap="round"/><path d="M646.8 84 C644.4 115.1 642.6 145.6 647.9 178.6" fill="none" stroke="#1e1e1e" stroke-width="1.6" stroke-opacity="1" stroke-linecap="round"/><path d="M648.5 84.2 C648.8 111.4 645.1 148.6 648.5 176.1" fill="none" stroke="#1e1e1e" stroke-width="1.6" stroke-opacity="0.75" stroke-linecap="round"/><path d="M652.6 172.5 C590.3 172.8 519.6 167.8 455.2 172.8" fill="none" stroke="#1e1e1e" stroke-width="1.6" stroke-opacity="1" stroke-linecap="round"/><path d="M651 171.3 C587.3 175.4 523.1 175.9 455.1 173.7" fill="none" stroke="#1e1e1e" stroke-width="1.6" stroke-opacity="0.75" stroke-linecap="round"/><path d="M458.3 177.5 C456.2 145.5 457.6 117.5 461.5 84.6" fill="none" stroke="#1e1e1e" stroke-width="1.6" stroke-opacity="1" stroke-linecap="round"/><path d="M461.6 178.3 C456.1 147.6 458.2 118.7 458.9 83.3" fill="none" stroke="#1e1e1e" stroke-width="1.6" stroke-opacity="0.75" stroke-linecap="round"/><text x="554" y="130" font-family="Comic Sans MS, Chalkboard SE, Segoe Print, Bradley Hand, cursive" font-size="32" fill="#1e1e1e" text-anchor="middle">0</text><text x="554" y="156" font-family="Comic Sans MS, Chalkboard SE, Segoe Print, Bradley Hand, cursive" font-size="15" fill="#5c5c5c" text-anchor="middle">기초지자체</text><path d="M664.1 86.6 C731.1 93.4 790.6 87.8 862.1 88.5" fill="none" stroke="#1e1e1e" stroke-width="1.6" stroke-opacity="1" stroke-linecap="round"/><path d="M663.1 89.6 C725.5 92.9 792 89.3 861.3 89.2" fill="none" stroke="#1e1e1e" stroke-width="1.6" stroke-opacity="0.75" stroke-linecap="round"/><path d="M857.1 84.3 C855.3 115.8 856.3 141.9 856.5 178.2" fill="none" stroke="#1e1e1e" stroke-width="1.6" stroke-opacity="1" stroke-linecap="round"/><path d="M856.5 84.1 C855.4 117.9 853.4 144.7 855.6 178.1" fill="none" stroke="#1e1e1e" stroke-width="1.6" stroke-opacity="0.75" stroke-linecap="round"/><path d="M860 171.3 C795.1 169.5 726.2 172.6 664.2 172.4" fill="none" stroke="#1e1e1e" stroke-width="1.6" stroke-opacity="1" stroke-linecap="round"/><path d="M861 173.2 C791.7 176.9 726.9 169.4 663.9 172.7" fill="none" stroke="#1e1e1e" stroke-width="1.6" stroke-opacity="0.75" stroke-linecap="round"/><path d="M667.8 177.6 C667.2 141.9 665.3 117.4 669.7 84.5" fill="none" stroke="#1e1e1e" stroke-width="1.6" stroke-opacity="1" stroke-linecap="round"/><path d="M669.4 175.2 C664.8 145.5 666.9 115.5 669.3 83" fill="none" stroke="#1e1e1e" stroke-width="1.6" stroke-opacity="0.75" stroke-linecap="round"/><text x="762" y="130" font-family="Comic Sans MS, Chalkboard SE, Segoe Print, Bradley Hand, cursive" font-size="32" fill="#1e1e1e" text-anchor="middle">673</text><text x="762" y="156" font-family="Comic Sans MS, Chalkboard SE, Segoe Print, Bradley Hand, cursive" font-size="15" fill="#5c5c5c" text-anchor="middle">대기측정소</text><text x="44" y="214" font-family="Comic Sans MS, Chalkboard SE, Segoe Print, Bradley Hand, cursive" font-size="20" fill="#1e1e1e" text-anchor="start">수집된 월</text><path d="M37.6 232.8 C309.7 230.8 589.2 231.9 861.1 235.6" fill="none" stroke="#5c5c5c" stroke-width="1.4" stroke-opacity="1" stroke-linecap="round"/><path d="M37.5 232.7 C316.2 231.3 587.6 236.1 859.5 233.1" fill="none" stroke="#5c5c5c" stroke-width="1.4" stroke-opacity="0.75" stroke-linecap="round"/><path d="M857.8 227.6 C857.7 250.3 856.5 272.7 854.4 297.3" fill="none" stroke="#5c5c5c" stroke-width="1.4" stroke-opacity="1" stroke-linecap="round"/><path d="M857.2 228.4 C852.8 253.1 859.9 276.1 857.1 299.6" fill="none" stroke="#5c5c5c" stroke-width="1.4" stroke-opacity="0.75" stroke-linecap="round"/><path d="M859.4 292.3 C583.6 296.4 312.7 297.7 39.7 293.5" fill="none" stroke="#5c5c5c" stroke-width="1.4" stroke-opacity="1" stroke-linecap="round"/><path d="M862.4 294.3 C591.7 290.6 313 298.5 37.7 293" fill="none" stroke="#5c5c5c" stroke-width="1.4" stroke-opacity="0.75" stroke-linecap="round"/><path d="M44.2 298 C43.9 271.2 40.5 255.2 44.8 228.9" fill="none" stroke="#5c5c5c" stroke-width="1.4" stroke-opacity="1" stroke-linecap="round"/><path d="M44.1 297.1 C43.9 278.7 47.1 253.2 45.1 228.5" fill="none" stroke="#5c5c5c" stroke-width="1.4" stroke-opacity="0.75" stroke-linecap="round"/><text x="450" y="270" font-family="Comic Sans MS, Chalkboard SE, Segoe Print, Bradley Hand, cursive" font-size="17" fill="#5c5c5c" text-anchor="middle">아직 수집된 기간이 없습니다</text><text x="44" y="344" font-family="Comic Sans MS, Chalkboard SE, Segoe Print, Bradley Hand, cursive" font-size="15" fill="#5c5c5c" text-anchor="start">마지막 수집 2026-08-12</text></svg>
