<svg xmlns="http://www.w3.org/2000/svg" width="900" height="366" viewBox="0 0 900 366" role="img" aria-label="수집 현황: 기간 0개, 일별 행 0, 기초지자체 0, 대기측정소 673"><rect x="0" y="0" width="900" height="366" fill="#fdfdf7"/><text x="44" y="58" font-family="Comic Sans MS, Chalkboard SE, Segoe Print, Bradley Hand, cursive" font-size="30" fill="#1e1e1e" text-anchor="start">수집 현황</text><text x="856" y="58" font-family="Comic Sans MS, Chalkboard SE, Segoe Print, Bradley Hand, cursive" font-size="16" fill="#5c5c5c" text-anchor="end"></text><path d="M40.8 89.6 C108.7 82.8 173.9 88.3 236 86.2" fill="none" stroke="#1e1e1e" stroke-width="1.6" stroke-opacity="1" stroke-linecap="round"/><path d="M39.5 87.5 C106 83.2 166.8 87.8 235.1 88.9" fill="none" stroke="#1e1e1e" stroke-width="1.6" stroke-opacity="0.75" stroke-linecap="round"/><path d="M231.2 81.9 C229.1 109.7 235.4 141.5 232.3 177.2" fill="none" stroke="#1e1e1e" stroke-width="1.6" stroke-opacity="1" stroke-linecap="round"/><path d="M233.4 81.9 C232.4 117.6 234.9 147.3 232.1 175.1" fill="none" stroke="#1e1e1e" stroke-width="1.6" stroke-opacity="0.75" stroke-linecap="round"/><path d="M235.4 170.2 C172.1 171.8 108.6 172.3 37.8 171.8" fill="none" stroke="#1e1e1e" stroke-width="1.6" stroke-opacity="1" stroke-linecap="round"/><path d="M236.4 172.2 C168.6 173.6 106.4 169.8 40 171" fill="none" stroke="#1e1e1e" stroke-width="1.6" stroke-opacity="0.75" stroke-linecap="round"/><path d="M45.7 177.8 C46.1 150.9 41.3 115.7 44.5 83.5" fill="none" stroke="#1e1e1e" stroke-width="1.6" stroke-opacity="1" stroke-linecap="round"/><path d="M45.8 177 C41.1 145.7 46.1 113.2 45.7 82.1" fill="none" stroke="#1e1e1e" stroke-width="1.6" stroke-opacity="0.75" stroke-linecap="round"/><text x="138" y="130" font-family="Comic Sans MS, Chalkboard SE, Segoe Print, Bradley Hand, cursive" font-size="32" fill="#1e1e1e" text-anchor="middle">0</text><text x="138" y="156" font-family="Comic Sans MS, Chalkboard SE, Segoe Print, Bradley Hand, cursive" font-size="15" fill="#5c5c5c" text-anchor="middle">수집 개월</text><path d="M246 86.2 C316.1 87.4 375.7 86.1 443.6 88.7" fill="none" stroke="#1e1e1e" stroke-width="1.6" stroke-opacity="1" stroke-linecap="round"/><path d="M246.2 89.2 C308.7 85.3 374 92.1 446.2 88.3" fill="none" stroke="#1e1e1e" stroke-width="1.6" stroke-opacity="0.75" stroke-linecap="round"/><path d="M441.4 83.9 C440.1 119 435.4 148.6 439 176.8" fill="none" stroke="#1e1e1e" stroke-width="1.6" stroke-opacity="1" stroke-linecap="round"/><path d="M441.2 84.3 C444.3 112.9 437.4 149.9 438.7 175.4" fill="none" stroke="#1e1e1e" stroke-width="1.6" stroke-opacity="0.75" stroke-linecap="round"/><path d="M444.8 170.5 C376.9 170.3 313.4 169.5 246.5 173" fill="none" stroke="#1e1e1e" stroke-width="1.6" stroke-opacity="1" stroke-linecap="round"/><path d="M444.3 171.4 C375.9 168.1 308 170.5 247.1 172.5" fill="none" stroke="#1e1e1e" stroke-width="1.6" stroke-opacity="0.75" stroke-linecap="round"/><path d="M251.1 177.9 C255.2 145.4 256.7 115.7 252.8 83.3" fill="none" stroke="#1e1e1e" stroke-width="1.6" stroke-opacity="1" stroke-linecap="round"/><path d="M252.4 175.6 C253.2 145.4 251.9 110.8 251.4 81.5" fill="none" stroke="#1e1e1e" stroke-width="1.6" stroke-opacity="0.75" stroke-linecap="round"/><text x="346" y="130" font-family="Comic Sans MS, Chalkboard SE, Segoe Print, Bradley Hand, cursive" font-size="32" fill="#1e1e1e" text-anchor="middle">0</text><text x="346" y="156" font-family="Comic Sans MS, Chalkboard SE, Segoe Print, Bradley Hand, cursive" font-size="15" fill="#5c5c5c" text-anchor="middle">일별 행</text><path d="M455.1 87.9 C519.1 87.4 585.9 89.9 653.5 86.5" fill="none" stroke="#1e1e1e" stroke-width="1.6" stroke-opacity="1" stroke-linecap="round"/><path d="M454.5 88.2 C525.8 88.8 583.6 83.6 651.4 88.6" fill="none" stroke="#1e1e1e" stroke-width="1.6" stroke-opacity="0.75" stroke-linecap="round"/><path d="M649.5 83.2 C652.9 118.6 643.7 140.3 647.3 175.2" fill="none" stroke="#1e1e1e" stroke-width="1.6" stroke-opacity="1" stroke-linecap="round"/><path d="M648.8 84.5 C645.4 115 648.8 147 649.5 176.7" fill="none" stroke="#1e1e1e" stroke-width="1.6" stroke-opacity="0.75" stroke-linecap="round"/><path d="M651.9 170.4 C585.4 173.9 518.7 173.5 455.7 171.7" fill="none" stroke="#1e1e1e" stroke-width="1.6" stroke-opacity="1" stroke-linecap="round"/><path d="M651.8 173.6 C587 171.7 519.9 174 456.7 172.9" fill="none" stroke="#1e1e1e" stroke-width="1.6" stroke-opacity="0.75" stroke-linecap="round"/><path d="M461.6 177.7 C464.1 147.1 454.6 119.7 458.9 84.8" fill="none" stroke="#1e1e1e" stroke-width="1.6" stroke-opacity="1" stroke-linecap="round"/><path d="M460.8 177.2 C459.4 141.5 457.9 109.7 459.4 82.7" fill="none" stroke="#1e1e1e" stroke-width="1.6" stroke-opacity="0.75" stroke-linecap="round"/><text x="554" y="130" font-family="Comic Sans MS, Chalkboard SE, Segoe Print, Bradley Hand, cursive" font-size="32" fill="#1e1e1e" text-anchor="middle">0</text><text x="554" y="156" font-family="Comic Sans MS, Chalkboard SE, Segoe Print, Bradley Hand, cursive" font-size="15" fill="#5c5c5c" text-anchor="middle">기초지자체</text><path d="M663.9 88.9 C731.2 86.2 790.3 91.5 859 87.2" fill="none" stroke="#1e1e1e" stroke-width="1.6" stroke-opacity="1" stroke-linecap="round"/><path d="M664.7 89.2 C733.1 85.7 799 86.9 859 86.5" fill="none" stroke="#1e1e1e" stroke-width="1.6" stroke-opacity="0.75" stroke-linecap="round"/><path d="M857.7 84.8 C855.4 110.9 858.2 146.8 857.8 176" fill="none" stroke="#1e1e1e" stroke-width="1.6" stroke-opacity="1" stroke-linecap="round"/><path d="M857.3 83 C857.6 109.7 853.5 141.9 854.4 178.1" fill="none" stroke="#1e1e1e" stroke-width="1.6" stroke-opacity="0.75" stroke-linecap="round"/><path d="M859.2 171.6 C793 175.3 733.6 171.8 663 171.7" fill="none" stroke="#1e1e1e" stroke-width="1.6" stroke-opacity="1" stroke-linecap="round"/><path d="M861.6 171.3 C791.4 168.1 733.3 176.4 662.5 173.5" fill="none" stroke="#1e1e1e" stroke-width="1.6" stroke-opacity="0.75" stroke-linecap="round"/><path d="M668.3 178.3 C668.1 148.2 672.2 110.2 668 82.7" fill="none" stroke="#1e1e1e" stroke-width="1.6" stroke-opacity="1" stroke-linecap="round"/><path d="M668.5 175.8 C672.8 140.8 673.1 109.6 669 82.5" fill="none" stroke="#1e1e1e" stroke-width="1.6" stroke-opacity="0.75" stroke-linecap="round"/><text x="762" y="130" font-family="Comic Sans MS, Chalkboard SE, Segoe Print, Bradley Hand, cursive" font-size="32" fill="#1e1e1e" text-anchor="middle">673</text><text x="762" y="156" font-family="Comic Sans MS, Chalkboard SE, Segoe Print, Bradley Hand, cursive" font-size="15" fill="#5c5c5c" text-anchor="middle">대기측정소</text><text x="44" y="214" font-family="Comic Sans MS, Chalkboard SE, Segoe Print, Bradley Hand, cursive" font-size="20" fill="#1e1e1e" text-anchor="start">수집된 월</text><path d="M40.2 234.7 C308.5 239.1 588.5 237.5 860.2 232.7" fill="none" stroke="#5c5c5c" stroke-width="1.4" stroke-opacity="1" stroke-linecap="round"/><path d="M38.2 232.5 C313.3 229.3 586.8 230 859.6 233.5" fill="none" stroke="#5c5c5c" stroke-width="1.4" stroke-opacity="0.75" stroke-linecap="round"/><path d="M857.1 228 C851.7 252.9 856.3 276.6 856.6 300.1" fill="none" stroke="#5c5c5c" stroke-width="1.4" stroke-opacity="1" stroke-linecap="round"/><path d="M857.5 228.9 C850.7 253 850.8 279.2 854.6 297" fill="none" stroke="#5c5c5c" stroke-width="1.4" stroke-opacity="0.75" stroke-linecap="round"/><path d="M860.7 292.6 C585.1 290.2 315.2 290.9 39.4 294.5" fill="none" stroke="#5c5c5c" stroke-width="1.4" stroke-opacity="1" stroke-linecap="round"/><path d="M859.5 294.2 C588.3 289.4 317.3 295 38.9 295.8" fill="none" stroke="#5c5c5c" stroke-width="1.4" stroke-opacity="0.75" stroke-linecap="round"/><path d="M43.4 300.1 C38.8 270.8 41.1 250.8 44.2 227.9" fill="none" stroke="#5c5c5c" stroke-width="1.4" stroke-opacity="1" stroke-linecap="round"/><path d="M43.5 299.1 C39.1 280.5 47.8 251 44.9 227.7" fill="none" stroke="#5c5c5c" stroke-width="1.4" stroke-opacity="0.75" stroke-linecap="round"/><text x="450" y="270" font-family="Comic Sans MS, Chalkboard SE, Segoe Print, Bradley Hand, cursive" font-size="17" fill="#5c5c5c" text-anchor="middle">아직 수집된 기간이 없습니다</text><text x="44" y="344" font-family="Comic Sans MS, Chalkboard SE, Segoe Print, Bradley Hand, cursive" font-size="15" fill="#5c5c5c" text-anchor="start">마지막 수집 2026-08-24</text></svg>
