<svg xmlns="http://www.w3.org/2000/svg" width="900" height="366" viewBox="0 0 900 366" role="img" aria-label="수집 현황: 기간 0개, 일별 행 0, 기초지자체 0, 대기측정소 673"><rect x="0" y="0" width="900" height="366" fill="#fdfdf7"/><text x="44" y="58" font-family="Comic Sans MS, Chalkboard SE, Segoe Print, Bradley Hand, cursive" font-size="30" fill="#1e1e1e" text-anchor="start">수집 현황</text><text x="856" y="58" font-family="Comic Sans MS, Chalkboard SE, Segoe Print, Bradley Hand, cursive" font-size="16" fill="#5c5c5c" text-anchor="end"></text><path d="M40.8 88.4 C102.3 91.4 168.6 91.5 238 87.6" fill="none" stroke="#1e1e1e" stroke-width="1.6" stroke-opacity="1" stroke-linecap="round"/><path d="M37.6 86.5 C107.4 88.8 168 83.1 237.3 86.9" fill="none" stroke="#1e1e1e" stroke-width="1.6" stroke-opacity="0.75" stroke-linecap="round"/><path d="M230.3 82 C236.3 114.4 227.7 143.4 230.7 175.8" fill="none" stroke="#1e1e1e" stroke-width="1.6" stroke-opacity="1" stroke-linecap="round"/><path d="M231.6 83.2 C230.7 114.3 236.5 148 233 177.1" fill="none" stroke="#1e1e1e" stroke-width="1.6" stroke-opacity="0.75" stroke-linecap="round"/><path d="M237.9 171.5 C169.2 169.2 109.2 172.3 38.3 170.6" fill="none" stroke="#1e1e1e" stroke-width="1.6" stroke-opacity="1" stroke-linecap="round"/><path d="M238.5 171 C169 168 107.4 167.7 39.1 171.7" fill="none" stroke="#1e1e1e" stroke-width="1.6" stroke-opacity="0.75" stroke-linecap="round"/><path d="M44.9 176.9 C40.8 147.7 43 118.4 44.1 84.9" fill="none" stroke="#1e1e1e" stroke-width="1.6" stroke-opacity="1" stroke-linecap="round"/><path d="M43.3 175.1 C41.2 147.7 43.1 116.3 42.2 85.1" fill="none" stroke="#1e1e1e" stroke-width="1.6" stroke-opacity="0.75" stroke-linecap="round"/><text x="138" y="130" font-family="Comic Sans MS, Chalkboard SE, Segoe Print, Bradley Hand, cursive" font-size="32" fill="#1e1e1e" text-anchor="middle">0</text><text x="138" y="156" font-family="Comic Sans MS, Chalkboard SE, Segoe Print, Bradley Hand, cursive" font-size="15" fill="#5c5c5c" text-anchor="middle">수집 개월</text><path d="M245.4 87.9 C307.6 88.9 374.4 85 445.6 86.6" fill="none" stroke="#1e1e1e" stroke-width="1.6" stroke-opacity="1" stroke-linecap="round"/><path d="M248.3 86.6 C315.4 86.3 374.9 85.7 445.5 87.9" fill="none" stroke="#1e1e1e" stroke-width="1.6" stroke-opacity="0.75" stroke-linecap="round"/><path d="M441.7 82.6 C442.8 116.6 441.6 144.8 440.9 177.8" fill="none" stroke="#1e1e1e" stroke-width="1.6" stroke-opacity="1" stroke-linecap="round"/><path d="M441.6 84.5 C437.1 113 442.7 142.5 440.9 178.3" fill="none" stroke="#1e1e1e" stroke-width="1.6" stroke-opacity="0.75" stroke-linecap="round"/><path d="M443.4 172.1 C378.3 167.9 314.9 170.8 247.1 171.1" fill="none" stroke="#1e1e1e" stroke-width="1.6" stroke-opacity="1" stroke-linecap="round"/><path d="M444.4 170.4 C378.6 173.1 307.8 174.6 246.8 173" fill="none" stroke="#1e1e1e" stroke-width="1.6" stroke-opacity="0.75" stroke-linecap="round"/><path d="M251.4 175 C252.4 142.5 257.2 109.1 253.8 85" fill="none" stroke="#1e1e1e" stroke-width="1.6" stroke-opacity="1" stroke-linecap="round"/><path d="M250.2 178 C252.9 144.6 251.2 110.1 251.1 81.7" fill="none" stroke="#1e1e1e" stroke-width="1.6" stroke-opacity="0.75" stroke-linecap="round"/><text x="346" y="130" font-family="Comic Sans MS, Chalkboard SE, Segoe Print, Bradley Hand, cursive" font-size="32" fill="#1e1e1e" text-anchor="middle">0</text><text x="346" y="156" font-family="Comic Sans MS, Chalkboard SE, Segoe Print, Bradley Hand, cursive" font-size="15" fill="#5c5c5c" text-anchor="middle">일별 행</text><path d="M454.8 88 C517.8 87 591.8 83.5 652.8 87.2" fill="none" stroke="#1e1e1e" stroke-width="1.6" stroke-opacity="1" stroke-linecap="round"/><path d="M456.7 88.9 C523.9 85.4 582.8 87.1 653.4 89.8" fill="none" stroke="#1e1e1e" stroke-width="1.6" stroke-opacity="0.75" stroke-linecap="round"/><path d="M648 82.7 C652.5 114 651.2 147.4 649.9 175" fill="none" stroke="#1e1e1e" stroke-width="1.6" stroke-opacity="1" stroke-linecap="round"/><path d="M648 84.9 C644.5 114.1 651.1 146.6 646.5 178.3" fill="none" stroke="#1e1e1e" stroke-width="1.6" stroke-opacity="0.75" stroke-linecap="round"/><path d="M653 172.4 C585.5 168.1 524 175 453.9 172.7" fill="none" stroke="#1e1e1e" stroke-width="1.6" stroke-opacity="1" stroke-linecap="round"/><path d="M651.1 172.5 C583.1 170.8 518.8 175 456.4 172.3" fill="none" stroke="#1e1e1e" stroke-width="1.6" stroke-opacity="0.75" stroke-linecap="round"/><path d="M460.8 176.9 C458.7 147.5 460.9 110.9 458.6 84" fill="none" stroke="#1e1e1e" stroke-width="1.6" stroke-opacity="1" stroke-linecap="round"/><path d="M458.7 175 C459.2 141.2 458.9 116.9 458.1 83.3" fill="none" stroke="#1e1e1e" stroke-width="1.6" stroke-opacity="0.75" stroke-linecap="round"/><text x="554" y="130" font-family="Comic Sans MS, Chalkboard SE, Segoe Print, Bradley Hand, cursive" font-size="32" fill="#1e1e1e" text-anchor="middle">0</text><text x="554" y="156" font-family="Comic Sans MS, Chalkboard SE, Segoe Print, Bradley Hand, cursive" font-size="15" fill="#5c5c5c" text-anchor="middle">기초지자체</text><path d="M663.9 86.3 C730 85.8 797.5 89.4 858.9 86.8" fill="none" stroke="#1e1e1e" stroke-width="1.6" stroke-opacity="1" stroke-linecap="round"/><path d="M665.1 87.4 C729.5 88.4 796 84.1 859.7 86.9" fill="none" stroke="#1e1e1e" stroke-width="1.6" stroke-opacity="0.75" stroke-linecap="round"/><path d="M856.8 82.8 C851 113.6 859.7 146.2 855.5 178.2" fill="none" stroke="#1e1e1e" stroke-width="1.6" stroke-opacity="1" stroke-linecap="round"/><path d="M854.8 81.8 C853.4 109.5 857.5 143.5 856.4 177.5" fill="none" stroke="#1e1e1e" stroke-width="1.6" stroke-opacity="0.75" stroke-linecap="round"/><path d="M859.5 171 C793.4 177.3 724.6 174.6 664 171.7" fill="none" stroke="#1e1e1e" stroke-width="1.6" stroke-opacity="1" stroke-linecap="round"/><path d="M861.5 173.5 C793.9 170 724.8 175.8 664.2 173" fill="none" stroke="#1e1e1e" stroke-width="1.6" stroke-opacity="0.75" stroke-linecap="round"/><path d="M669.7 176.8 C669.1 140.4 672.6 111.6 669.6 82.6" fill="none" stroke="#1e1e1e" stroke-width="1.6" stroke-opacity="1" stroke-linecap="round"/><path d="M667 175.9 C666.8 150.3 667.1 112.3 668.6 82.1" fill="none" stroke="#1e1e1e" stroke-width="1.6" stroke-opacity="0.75" stroke-linecap="round"/><text x="762" y="130" font-family="Comic Sans MS, Chalkboard SE, Segoe Print, Bradley Hand, cursive" font-size="32" fill="#1e1e1e" text-anchor="middle">673</text><text x="762" y="156" font-family="Comic Sans MS, Chalkboard SE, Segoe Print, Bradley Hand, cursive" font-size="15" fill="#5c5c5c" text-anchor="middle">대기측정소</text><text x="44" y="214" font-family="Comic Sans MS, Chalkboard SE, Segoe Print, Bradley Hand, cursive" font-size="20" fill="#1e1e1e" text-anchor="start">수집된 월</text><path d="M37.8 233.1 C310.7 235 587.9 237.1 859.1 233" fill="none" stroke="#5c5c5c" stroke-width="1.4" stroke-opacity="1" stroke-linecap="round"/><path d="M38.6 233.4 C316 233.5 582 229.7 860.9 232.7" fill="none" stroke="#5c5c5c" stroke-width="1.4" stroke-opacity="0.75" stroke-linecap="round"/><path d="M854.8 227.6 C856.4 254.2 859.7 278.6 855 299.7" fill="none" stroke="#5c5c5c" stroke-width="1.4" stroke-opacity="1" stroke-linecap="round"/><path d="M855.2 229.5 C850.9 256.4 854.8 279.7 854.5 298" fill="none" stroke="#5c5c5c" stroke-width="1.4" stroke-opacity="0.75" stroke-linecap="round"/><path d="M859.5 293.2 C585.2 290.3 309.4 292.5 38.2 295.3" fill="none" stroke="#5c5c5c" stroke-width="1.4" stroke-opacity="1" stroke-linecap="round"/><path d="M861.3 292.7 C583.5 291.8 312.2 297 39.7 294.6" fill="none" stroke="#5c5c5c" stroke-width="1.4" stroke-opacity="0.75" stroke-linecap="round"/><path d="M45.8 297 C47.5 278.9 46.9 251.6 44.7 230.7" fill="none" stroke="#5c5c5c" stroke-width="1.4" stroke-opacity="1" stroke-linecap="round"/><path d="M42.8 297.5 C42.1 276.7 49.2 248.7 44.1 228" fill="none" stroke="#5c5c5c" stroke-width="1.4" stroke-opacity="0.75" stroke-linecap="round"/><text x="450" y="270" font-family="Comic Sans MS, Chalkboard SE, Segoe Print, Bradley Hand, cursive" font-size="17" fill="#5c5c5c" text-anchor="middle">아직 수집된 기간이 없습니다</text><text x="44" y="344" font-family="Comic Sans MS, Chalkboard SE, Segoe Print, Bradley Hand, cursive" font-size="15" fill="#5c5c5c" text-anchor="start">마지막 수집 2026-09-01</text></svg>
